<?xml version="1.0" encoding="UTF-8"?>
<svg width="200" height="60" viewBox="0 0 200 60" xmlns="http://www.w3.org/2000/svg">
  <!-- Bank Building Icon -->
  <g transform="translate(10, 15)">
    <!-- Building base -->
    <rect x="7" y="26" width="36" height="14" fill="#007C75" rx="1" />
    
    <!-- Roof/Pediment -->
    <polygon points="25,5 45,20 5,20" fill="#007C75" />
    
    <!-- Columns/Pillars -->
    <rect x="10" y="20" width="4" height="18" fill="#ffffff" rx="1" />
    <rect x="18" y="20" width="4" height="18" fill="#ffffff" rx="1" />
    <rect x="26" y="20" width="4" height="18" fill="#ffffff" rx="1" />
    <rect x="34" y="20" width="4" height="18" fill="#ffffff" rx="1" />
    
    <!-- Steps -->
    <rect x="5" y="38" width="40" height="2" fill="#006560" />
    <rect x="7" y="40" width="36" height="2" fill="#006560" />
    <rect x="9" y="42" width="32" height="2" fill="#006560" />
  </g>
  
  <!-- Text: Smart Bank -->
  <g transform="translate(60, 30)">
    <!-- Smart -->
    <path d="M5.5,10.6c0.8,0.5,1.8,0.7,2.9,0.7c1.3,0,2.1-0.5,2.1-1.3c0-0.8-0.6-1.2-2.1-1.7c-2.1-0.6-3.5-1.6-3.5-3.5c0-2,1.7-3.5,4.5-3.5c1.2,0,2.3,0.2,3.1,0.6l-0.6,2.2c-0.5-0.3-1.3-0.5-2.3-0.5c-1.2,0-1.8,0.6-1.8,1.2c0,0.8,0.7,1.1,2.3,1.6c2.2,0.7,3.3,1.7,3.3,3.6c0,1.9-1.5,3.5-4.8,3.5c-1.4,0-2.7-0.3-3.6-0.8L5.5,10.6z" fill="#007C75"/>
    <!-- m -->
    <path d="M18.3,1.6h3v10.8c0,0.8,0,1.6,0.1,2.2h-2.7l-0.1-1.1h0c-0.6,0.9-1.7,1.3-2.9,1.3c-2.1,0-3.8-1.8-3.8-4.5c0-3,1.9-4.7,4-4.7c1.2,0,2,0.5,2.4,1h0V1.6z M18.3,9.7c0-0.2,0-0.4,0-0.5c-0.2-0.8-0.8-1.4-1.8-1.4c-1.3,0-2.1,1.2-2.1,2.7c0,1.5,0.7,2.6,2,2.6c1,0,1.7-0.7,1.8-1.5c0-0.2,0.1-0.4,0.1-0.6V9.7z" fill="#007C75"/>
    <!-- a -->
    <path d="M23.3,10.5c0.1,1.1,1.2,1.7,2.4,1.7c0.9,0,1.7-0.1,2.4-0.4l0.4,2c-0.9,0.4-2,0.6-3.2,0.6c-3,0-4.7-1.8-4.7-4.4c0-2.2,1.4-4.6,4.4-4.6c2.8,0,3.9,2.2,3.9,4.3c0,0.5-0.1,1-0.1,1.2L23.3,10.5z M26.5,8.5c0-0.7-0.3-1.8-1.5-1.8c-1.1,0-1.6,1-1.7,1.8H26.5z" fill="#007C75"/>
    <!-- r -->
    <path d="M31.8,6.8c0-1.2,0-2-0.1-2.8h2.6l0.1,1.4h0.1c0.5-1.1,1.5-1.6,2.3-1.6c0.2,0,0.4,0,0.5,0v2.8c-0.2,0-0.4-0.1-0.7-0.1c-1,0-1.7,0.5-1.8,1.3c0,0.2-0.1,0.4-0.1,0.6v3.9h-3V6.8z" fill="#007C75"/>
    <!-- t -->
    <path d="M39,8.4c0-1.2,0-2.1-0.1-2.9h2.5l0.1,1.2h0.1c0.4-0.6,1.3-1.4,2.8-1.4c1.2,0,2.1,0.6,2.5,1.6h0c0.3-0.4,0.7-0.8,1.1-1c0.5-0.3,1.1-0.5,1.8-0.5c1.8,0,3.1,1.2,3.1,3.8v5.2h-2.9V9.6c0-1.3-0.4-2-1.4-2c-0.7,0-1.2,0.5-1.4,1c-0.1,0.2-0.1,0.5-0.1,0.7v5h-2.9V9.3c0-1.1-0.4-1.8-1.3-1.8c-0.7,0-1.2,0.6-1.4,1.1c-0.1,0.2-0.1,0.5-0.1,0.7v5h-2.9V8.4z" fill="#007C75"/>
    
    <!-- Bank -->
    <path d="M62.3,1.8h3.5c2,0,3.3,0.5,4.2,1.4c0.9,0.9,1.4,2.1,1.4,3.7c0,1.8-0.5,3.2-1.6,4.2c-1,1-2.5,1.5-4.5,1.5h-3V1.8z M65.3,10.1h0.7c1.4,0,2.5-0.8,2.5-3.2c0-2-0.9-2.9-2.4-2.9h-0.8V10.1z" fill="#007C75"/>
    <!-- a -->
    <path d="M73.3,10.5c0.1,1.1,1.2,1.7,2.4,1.7c0.9,0,1.7-0.1,2.4-0.4l0.4,2c-0.9,0.4-2,0.6-3.2,0.6c-3,0-4.7-1.8-4.7-4.4c0-2.2,1.4-4.6,4.4-4.6c2.8,0,3.9,2.2,3.9,4.3c0,0.5-0.1,1-0.1,1.2L73.3,10.5z M76.5,8.5c0-0.7-0.3-1.8-1.5-1.8c-1.1,0-1.6,1-1.7,1.8H76.5z" fill="#007C75"/>
    <!-- n -->
    <path d="M80.8,8.5c0-1.2,0-2.1-0.1-2.9h2.6l0.1,1.2h0.1c0.5-0.9,1.6-1.4,2.7-1.4c1.8,0,3.3,1.5,3.3,4.4v6h-3V10c0-1.3-0.4-2.2-1.5-2.2c-0.8,0-1.3,0.6-1.5,1.1c-0.1,0.2-0.1,0.5-0.1,0.8v4.6h-3V8.5z" fill="#007C75"/>
    <!-- k -->
    <path d="M91.4,12.8l3.2-4.3c0.4-0.5,0.8-1,1.1-1.4V7h-4.1V4.6h7.9v2l-3.1,4.3c-0.4,0.5-0.7,1-1,1.4v0.1h4.2v2.3h-8.2V12.8z" fill="#007C75"/>
  </g>
</svg>